HIERARCHY
ROOT Hips
{
	OFFSET 0.000000 0.000000 0.000000 
	CHANNELS 6 Xposition Yposition Zposition Yrotation Zrotation Xrotation 
	JOINT Lumbar
	{
		OFFSET 0.000000 0.000000 0.000000 
		CHANNELS 3 Zrotation Xrotation Yrotation
		JOINT Neck
		{
			OFFSET 0.000000 0.445665 0.000000 
			CHANNELS 3 Zrotation Xrotation Yrotation
			End Site
			{
				OFFSET 0.000000 0.227535 0.000000 
			}
		}
		JOINT RightShoulder
		{
			OFFSET 0.019635 0.377685 0.194865 
			CHANNELS 3 Zrotation Xrotation Yrotation
			JOINT RightElbow
			{
				OFFSET 0.000000 -0.243375 0.000000 
				CHANNELS 2 Zrotation Yrotation
				JOINT RightWrist
				{
					OFFSET 0.000000 -0.264825 0.000000 
					CHANNELS 2 Zrotation Xrotation
					End Site
					{
						OFFSET 0.006600 -0.176220 0.000990 
					}
				}
			}
		}
		JOINT LeftShoulder
		{
			OFFSET 0.019635 0.377685 -0.194865 
			CHANNELS 3 Zrotation Xrotation Yrotation
			JOINT LeftElbow
			{
				OFFSET 0.000000 -0.243375 0.000000 
				CHANNELS 2 Zrotation Yrotation
				JOINT LeftWrist
				{
					OFFSET 0.000000 -0.264825 0.000000 
					CHANNELS 2 Zrotation Xrotation
					End Site
					{
						OFFSET 0.006600 -0.176220 -0.000990 
					}
				}
			}
		}
	}
	JOINT RightHip
	{
		OFFSET 0.052140 -0.069960 0.075570 
		CHANNELS 3 Zrotation Xrotation Yrotation
		JOINT RightKnee
		{
			OFFSET 0.000000 -0.402270 0.000000 
			CHANNELS 1 Zrotation
			JOINT RightAnkle
			{
				OFFSET 0.000000 -0.404085 0.000000 
				CHANNELS 3 Zrotation Xrotation Yrotation
				End Site
				{
					OFFSET 0.204105 -0.089430 0.008415 
				}
			}
		}
	}
	JOINT LeftHip
	{
		OFFSET 0.052140 -0.069960 -0.075570 
		CHANNELS 3 Zrotation Xrotation Yrotation
		JOINT LeftKnee
		{
			OFFSET 0.000000 -0.402270 0.000000 
			CHANNELS 1 Zrotation
			JOINT LeftAnkle
			{
				OFFSET 0.000000 -0.404085 0.000000 
				CHANNELS 3 Zrotation Xrotation Yrotation
				End Site
				{
					OFFSET 0.204105 -0.089430 -0.008415 
				}
			}
		}
	}
}
MOTION
Frames: 19
Frame Time: 0.02
0.62014 0.56266 0.02103 176.88128 0 -3.7091 15.38946 8.15655 -1.58829 -27.36713 -4.1804 -2.78119 46.66352 -0.22992 55.13151 104.72853 93.53106 55.73701 -2.18407 25.66946 11.67205 -52.98076 90.36354 -41.12386 67.17328 6.87927 77.47683 11.25827 -12.07292 -71.19588 -24.01839 -1.92695 10.60111 74.62998 2.05123 19.09879 -58.08983 -26.0305 2.18139 -10.61783
0.6185 0.56374 0.02097 176.58782 0 -3.79871 14.74786 8.34983 -1.33976 -25.48142 -4.38953 -2.48989 45.59832 -0.44385 54.80344 104.64562 92.3609 53.82317 -2.26619 24.17812 11.97297 -52.94136 89.66918 -40.94799 67.08137 6.90639 76.87721 11.45554 -12.08485 -71.17659 -22.41975 -1.75286 10.60042 74.17259 2.46514 19.36972 -58.64529 -25.9699 2.17089 -10.63502
0.61685 0.56483 0.02077 176.20609 0 -3.90921 14.05378 8.5581 -1.11462 -23.53211 -4.55997 -2.10799 44.54 -0.54238 54.38237 104.06597 90.65434 52.25302 -2.33668 22.75232 12.2132 -52.89372 88.75833 -40.66276 67.00582 6.95278 76.25562 11.73231 -12.11742 -71.13682 -20.57324 -1.55732 10.59958 73.73069 2.97493 19.5984 -59.12037 -25.75306 2.14285 -10.62867
0.61519 0.5659 0.02066 175.87478 0 -4.00615 13.38019 8.75353 -0.87748 -21.60229 -4.74083 -1.78155 43.46504 -0.69677 54.00833 103.67899 89.17326 50.49904 -2.41905 21.29271 12.48485 -52.84796 87.92883 -40.41087 66.8705 6.99499 75.65418 11.95964 -12.14941 -71.11099 -18.8906 -1.37687 10.59884 73.28123 3.42682 19.84148 -59.61598 -25.59573 2.12138 -10.6284
0.61357 0.56702 0.02048 175.49969 0 -4.11989 12.72384 8.97811 -0.64797 -19.72226 -4.96642 -1.39862 42.4524 -0.8193 53.61312 103.42582 87.77847 48.84599 -2.47537 19.85559 12.76598 -52.8109 87.18349 -40.23002 66.94586 7.01698 75.00799 12.24243 -12.1455 -71.06761 -16.99037 -1.1737 10.59742 72.83115 3.9386 20.10426 -60.17489 -25.48472 2.1054 -10.63005
0.61188 0.56805 0.02039 175.1948 0 -4.20401 12.01444 9.14296 -0.40726 -17.7066 -5.0773 -1.11503 41.29546 -0.99328 53.24114 102.78153 86.07973 47.068 -2.58258 18.37511 12.99408 -52.75235 86.20135 -39.87219 66.59142 7.08695 74.45047 12.42952 -12.22032 -71.05519 -15.48021 -1.01235 10.59751 72.38829 4.34888 20.31593 -60.58552 -25.24046 2.07396 -10.6285
0.61 0.56884 0.02055 175.10726 0 -4.19766 11.21599 9.1536 -0.1325 -15.49937 -4.96712 -1.06912 39.9206 -1.26279 52.94504 101.1307 83.58653 44.89171 -2.83391 16.88974 13.20434 -52.6482 84.68434 -39.08348 65.02891 7.27261 74.14353 12.32467 -12.51288 -71.13269 -15.16735 -0.97751 10.6027 71.94693 4.45206 20.39969 -60.59312 -24.67174 2.00432 -10.62824
0.60805 0.56955 0.0208 175.09323 0 -4.16142 10.35883 9.1009 0.15443 -13.13264 -4.72763 -1.13514 38.37368 -1.60128 52.67699 99.10819 80.81716 42.57569 -3.1375 15.34041 13.34195 -52.51941 82.9232 -38.1169 63.03637 7.5078 73.92679 12.12227 -12.88263 -71.24182 -15.24566 -0.98451 10.60935 71.51504 4.45031 20.43287 -60.45684 -23.97318 1.91971 -10.62732
0.60614 0.57029 0.02099 175.04427 0 -4.14126 9.49807 9.06698 0.43859 -10.72308 -4.48752 -1.18816 36.78014 -1.96165 52.40413 97.29333 78.23169 40.30487 -3.41512 13.72836 13.43344 -52.39573 81.22978 -37.20872 61.25509 7.72866 73.66878 11.96999 -13.21369 -71.33658 -15.10658 -0.96865 10.61484 71.08886 4.499 20.48764 -60.39605 -23.33168 1.84197 -10.62638
0.6042 0.57107 0.02123 174.99831 0 -4.11144 8.75889 9.07451 0.71296 -8.77608 -4.48933 -1.08169 35.68951 -2.10241 52.09703 95.31587 75.39164 38.11895 -3.69752 12.48329 13.84875 -52.30222 79.71182 -36.38252 59.41317 7.91704 73.41113 11.79622 -13.56163 -71.43081 -15.12522 -0.96827 10.62238 70.62173 4.53997 20.5475 -60.29123 -22.69511 1.76352 -10.6256
0.6023 0.57173 0.02141 174.96515 0 -4.09419 7.75874 8.98216 1.00752 -5.85614 -3.96648 -1.33093 33.5407 -2.70681 51.86595 93.57232 73.01018 35.72364 -3.98783 10.48633 13.58363 -52.13417 77.77273 -35.35592 57.58797 8.18282 73.17443 11.6428 -13.89133 -71.5337 -14.9125 -0.94587 10.62603 70.24092 4.57018 20.58445 -60.24315 -22.01673 1.68298 -10.62475
0.60047 0.57202 0.02141 174.94597 0 -4.12011 6.00492 8.61471 1.38479 -0.05246 -1.94558 -2.57047 28.25283 -4.67543 51.86699 92.76445 72.09997 32.73237 -4.23844 6.18396 11.36677 -51.82134 74.73472 -33.71904 55.97857 8.66732 72.97413 11.57081 -14.16152 -71.6548 -13.95887 -0.85245 10.61832 70.10546 4.60158 20.57832 -60.40378 -21.27979 1.60258 -10.62422
0.59868 0.57218 0.02136 174.93815 0 -4.15934 3.99949 8.15159 1.77691 6.68048 0.58318 -4.15718 21.95447 -7.08964 51.93958 92.17005 71.65436 29.5379 -4.5021 1.17239 8.48539 -51.42707 71.28143 -31.90239 54.3902 9.22607 72.79197 11.522 -14.40889 -71.78331 -12.76208 -0.7356 10.60668 70.05499 4.62437 20.54993 -60.62404 -20.502 1.52032 -10.62373
0.59688 0.57242 0.02133 174.92784 0 -4.1917 2.14071 7.74195 2.14219 12.83272 2.82673 -5.5631 16.28853 -9.23482 51.95953 91.35019 70.88761 26.47559 -4.79463 -3.35413 5.96719 -51.03022 68.01682 -30.23894 52.74806 9.73774 72.60105 11.46132 -14.66005 -71.90715 -11.68111 -0.62948 10.59702 69.95913 4.64713 20.52641 -60.80605 -19.72637 1.43743 -10.62315
0.59503 0.57258 0.0213 174.90894 0 -4.22672 0.14388 7.28801 2.59098 19.65911 5.30624 -7.07313 9.88486 -11.6648 52.06129 91.05984 70.50732 23.26233 -4.95126 -8.56947 3.18575 -50.78742 64.74451 -28.28186 51.2716 10.3018 72.4148 11.40301 -14.94114 -72.03735 -10.58819 -0.52416 10.5866 69.89115 4.68273 20.52197 -61.02894 -19.01265 1.35996 -10.62286
0.5933 0.57287 0.02126 174.90944 0 -4.25948 -1.62491 6.90429 2.87137 25.30014 7.41103 -8.44344 4.78071 -13.60453 52.01442 89.72156 69.52129 20.28965 -5.38185 -12.51826 0.79869 -50.22011 61.3919 -26.87778 49.46814 10.78082 72.22273 11.34644 -15.15417 -72.15594 -9.46113 -0.41146 10.57677 69.78642 4.69114 20.47474 -61.18412 -18.16539 1.27128 -10.62196
0.59194 0.57358 0.02122 174.96284 0 -4.28537 -2.69739 6.73952 2.66414 27.43627 8.37468 -9.37647 3.50825 -14.09907 51.49641 85.44909 65.99623 18.27865 -6.66555 -12.79153 -0.36137 -48.6392 57.93243 -27.2392 46.6816 10.94091 72.00307 11.28995 -15.1787 -72.23746 -8.26666 -0.28084 10.56977 69.5484 4.62468 20.3015 -61.12621 -16.93275 1.14965 -10.61975
0.59071 0.57441 0.02117 175.03471 0 -4.30828 -3.53228 6.64878 2.29034 28.34697 8.93986 -10.15064 3.57985 -14.08204 50.83484 80.11779 61.96977 16.48041 -8.2065 -11.76739 -1.09671 -46.75636 54.40817 -28.15344 43.57261 11.02153 71.77768 11.23465 -15.13655 -72.30719 -7.05128 -0.14415 10.56343 69.27242 4.53196 20.08858 -61.00072 -15.57385 1.01746 -10.61688
0.58943 0.57517 0.02113 175.09625 0 -4.33091 -4.47902 6.52332 2.00522 29.82133 9.67495 -10.97437 3.03985 -14.28635 50.26652 75.26111 58.69047 14.41132 -9.56286 -11.33847 -2.0099 -45.10704 50.90241 -28.65562 40.67379 11.18581 71.55927 11.17872 -15.12821 -72.38461 -5.86376 -0.01203 10.5566 69.02106 4.45304 19.90298 -60.91479 -14.28958 0.89168 -10.61404
